<?xml  version="1.0" encoding="UTF-8"?>
<!DOCTYPE svg PUBLIC "-//W3C//DTD SVG 1.0//EN" "http://www.w3.org/TR/2001/REC-SVG-20010904/DTD/svg10.dtd" >
<svg xmlns="http://www.w3.org/2000/svg" >
<metadata>
<version>1.0</version>
<id><![CDATA[Prelo Slab W01 Bold]]></id>
<vendor>Monotype Imaging Inc.</vendor>
<credits>
<name>Fonts.com WebFonts</name>
<URL>http://webfonts.fonts.com</URL>
<role>Home of the Web fonts</role>
</credits>
<license>
<URL>http://webfonts.fonts.com/Legal</URL>
</license>
<copyright><![CDATA[Copyright (c) 2008 by Dino dos Santos _DSType. All rights reserved.]]></copyright>
<trademark><![CDATA[PreloSlab-Bold is a trademark of Dino dos Santos _DSType.]]></trademark>
<licensee>
<name></name>
</licensee>
</metadata>
<defs >
<font horiz-adv-x="525" id="e7df2ec7-01a3-43fc-93ab-712db914a393">
<font-face font-family="" panose-1="2 0 5 3 4 0 0 2 0 4" ascent="1000" descent="-250" units-per-em="1000" alphabetic="0">
</font-face>
<missing-glyph horiz-adv-x="180" />

<glyph unicode="&#xA;" horiz-adv-x="0" />
<glyph unicode="&#xD;" horiz-adv-x="0" />
<glyph unicode=" " horiz-adv-x="180" />
<glyph unicode="!" horiz-adv-x="215" d="M172 145V0H42V145H172ZM172 700L165 220H50L42 700H172Z"  />
<glyph unicode="&quot;" horiz-adv-x="415" d="M172 680L157 505H57L42 680H172ZM372 680L357 505H257L242 680H372Z"  />
<glyph unicode="#" horiz-adv-x="613" d="M278 500L267 397H377L388 500H480L469 397H569L561 312H461L447 187H547L539 102H439L427 0H335L346 102H236L225 0H132L144 102H44L52 187H152L166 312H66L74 397H174L185 500H278ZM245 187H355L368 312H258L245 187Z"  />
<glyph unicode="$" horiz-adv-x="620" d="M160 195V124Q208 113 244 109T310 105Q368 105 395 128T422 185Q422 209 409 225T373 252T323 271T265 287Q221 299 184 318T119 363T77 423T62 500Q62 548 79 582T127 640T198 675T286 689V780H341V689Q390 687 440 679T550 652V485H442V560Q398 569 369 572T310 575Q257 575 232 555T207 504Q207 483 218 467T250 439T297 418T355 402Q399 392 438 376T505 336T550 278T567 200Q567 150 550 112T503 48T431 8T341 -9V-100H286V-9Q232 -8 174 0T52 27V195H160Z"  />
<glyph unicode="%" horiz-adv-x="760" d="M237 0H152L522 680H607L237 0ZM180 389Q110 389 74 428T37 536Q37 604 73 643T180 682Q251 682 287 643T323 536Q323 467 287 428T180 389ZM180 454Q243 454 243 536Q243 618 180 618Q118 618 118 536Q118 454 180 454ZM579 -3Q509 -3 473 36T436 144Q436 213 472 252T579 291Q650 291 686 252T722 144Q722 76 686 37T579 -3ZM579 62Q642 62 642 144Q642 226 579 226Q517 226 517 144Q517 62 579 62Z"  />
<glyph unicode="&amp;" horiz-adv-x="705" d="M512 524Q512 505 507 485T486 444T445 401T376 356L511 227Q531 256 543 287T560 350H682Q676 299 655 244T595 140L672 60L588 -32L503 56Q460 26 406 8T285 -10Q221 -10 175 4T99 43T55 102T41 178Q41 204 47 228T71 275T118 322T195 372Q163 413 143 446T122 520Q122 563 139 595T184 648T249 679T325 690Q413 690 462 647T512 524ZM295 101Q330 101 362 110T423 140L261 307Q179 258 179 199Q179 160 208 131T295 101ZM249 525Q249 498 263 476T302 427Q346 452 368 476T390 529Q390 550 384 563T367 585T345 597T321 601Q300 601 287 594T265 576T253 552T249 525Z"  />
<glyph unicode="&apos;" horiz-adv-x="215" d="M172 680L157 505H57L42 680H172Z"  />
<glyph unicode="(" horiz-adv-x="330" d="M46 340Q46 467 90 590T222 820H307Q236 697 206 580T176 340Q176 220 206 104T307 -140H222Q134 -34 90 91T46 340Z"  />
<glyph unicode=")" horiz-adv-x="330" d="M284 340Q284 216 240 91T108 -140H22Q93 -13 123 103T154 340Q154 461 124 579T22 820H108Q196 714 240 591T284 340Z"  />
<glyph unicode="*" horiz-adv-x="410" d="M168 680H242L232 558L354 603L376 530L250 515L333 419L275 374L204 490L134 374L76 419L160 515L33 530L55 603L177 558L168 680Z"  />
<glyph unicode="+" horiz-adv-x="500" d="M304 319H457V211H304V57H196V211H42V319H196V472H304V319Z"  />
<glyph unicode="&#x2c;" horiz-adv-x="215" d="M70 -130L95 0H42V145H172V0L110 -130H70Z"  />
<glyph unicode="-" horiz-adv-x="500" d="M457 319V211H42V319H457Z"  />
<glyph unicode="." horiz-adv-x="215" d="M172 145V0H42V145H172Z"  />
<glyph unicode="/" horiz-adv-x="540" d="M142 0H27L397 680H512L142 0Z"  />
<glyph unicode="0" horiz-adv-x="570" d="M285 582Q251 582 229 564T193 514T175 439T170 345Q170 294 175 249T193 171T228 117T285 97Q319 97 341 117T377 170T395 249T400 345Q400 396 395 439T377 514T342 564T285 582ZM285 -10Q208 -10 159 18T82 94T43 207T32 345Q32 417 43 480T82 589T159 663T285 690Q361 690 410 663T487 590T526 480T537 345Q537 272 527 208T488 95T410 18T285 -10Z"  />
<glyph unicode="1" horiz-adv-x="390" d="M365 107V0H15V107H125V559L17 554V646L194 685H255V107H365Z"  />
<glyph unicode="2" horiz-adv-x="530" d="M505 167V0H22V124Q121 187 183 236T280 326T327 397T340 456Q340 495 327 517T296 552T257 567T220 571Q198 571 177 568T130 556V505H22V640Q53 652 80 661T134 677T189 687T250 690Q308 690 350 674T421 630T463 565T477 484Q477 431 459 384T405 293T320 205T206 117V115H397V167H505Z"  />
<glyph unicode="3" horiz-adv-x="520" d="M20 175H127V114Q154 105 182 101T241 97Q278 97 301 106T339 130T358 161T364 192Q364 286 230 286H140V394H224Q261 394 285 403T323 427T342 460T348 496Q348 511 343 526T324 554T291 574T241 582Q211 582 187 578T136 565V505H29V641Q89 669 148 679T264 690Q308 690 347 679T415 645T460 589T477 510Q477 453 446 414T359 355V353Q394 344 420 328T463 289T488 240T497 185Q497 90 432 40T249 -10Q185 -10 132 0T20 39V175Z"  />
<glyph unicode="4" horiz-adv-x="570" d="M330 295V546H328Q307 508 288 476T247 413T204 354T155 295H330ZM330 187H22V295Q63 340 101 384T175 475T241 573T299 685H460V295H547V187H460V107H517V0H272V107H330V187Z"  />
<glyph unicode="5" horiz-adv-x="540" d="M485 512H377V565H170L161 399L163 398Q187 418 219 431T299 445Q395 445 451 390T507 225Q507 108 439 49T250 -10Q193 -10 142 1T30 40V167H137V114Q165 104 190 101T242 97Q308 97 339 131T370 217Q370 237 365 257T346 295T309 323T252 334Q213 334 188 322T137 286L44 294L57 680H485V512Z"  />
<glyph unicode="6" horiz-adv-x="550" d="M164 384Q190 416 227 435T309 455Q406 455 461 394T517 220Q517 166 500 124T451 51T377 6T283 -10Q215 -10 167 16T89 85T46 184T32 300Q32 414 56 489T120 609T215 672T329 690Q378 690 417 683T497 662V512H390V578Q367 582 340 582Q303 582 271 568T214 527T176 465T162 385L164 384ZM174 288Q171 253 173 219T186 158T218 114T276 97Q319 97 349 128T380 220Q380 240 376 261T359 301T327 330T274 342Q242 342 218 327T174 288Z"  />
<glyph unicode="7" horiz-adv-x="490" d="M467 680V587Q432 525 397 461T332 324T277 172T237 0H92Q103 67 126 141T181 289T249 433T326 563V565H132V512H25V680H467Z"  />
<glyph unicode="8" horiz-adv-x="550" d="M389 357Q455 325 491 285T527 184Q527 134 507 98T452 37T370 2T271 -10Q221 -10 176 0T97 32T42 88T22 170Q22 232 59 272T159 339V341Q105 367 74 407T42 508Q42 554 61 588T114 644T190 678T279 690Q322 690 363 679T436 646T487 591T507 515Q507 458 476 423T389 359V357ZM156 184Q156 166 162 148T184 117T222 95T279 86Q311 86 333 93T368 112T388 139T394 172Q394 199 381 217T347 249T302 272T255 291Q236 283 218 273T187 250T165 221T156 184ZM271 594Q252 594 235 589T203 573T181 547T172 511Q172 489 182 472T209 442T247 420T291 405Q326 418 351 442T377 504Q377 548 346 571T271 594Z"  />
<glyph unicode="9" horiz-adv-x="550" d="M385 295Q359 263 322 244T241 225Q144 225 88 286T32 460Q32 514 49 556T98 629T172 674T267 690Q335 690 382 664T460 595T503 496T517 380Q517 266 493 191T429 71T335 8T221 -10Q172 -10 132 -3T53 18V167H160V102Q173 100 184 99T210 97Q247 97 279 111T336 152T373 214T387 294L385 295ZM376 392Q379 427 377 461T364 522T332 565T274 582Q231 582 201 552T170 460Q170 440 174 419T191 379T223 350T276 338Q307 338 331 353T376 392Z"  />
<glyph unicode=":" horiz-adv-x="215" d="M172 145V0H42V145H172ZM172 460V315H42V460H172Z"  />
<glyph unicode=";" horiz-adv-x="215" d="M172 460V315H42V460H172ZM70 -130L95 0H42V145H172V0L110 -130H70Z"  />
<glyph unicode="&lt;" horiz-adv-x="480" d="M437 487V372L180 250L437 127V12L42 211V289L437 487Z"  />
<glyph unicode="=" horiz-adv-x="500" d="M457 419V311H42V419H457ZM457 219V111H42V219H457Z"  />
<glyph unicode="&gt;" horiz-adv-x="480" d="M437 289V211L42 12V127L300 250L42 372V487L437 289Z"  />
<glyph unicode="?" horiz-adv-x="480" d="M32 651Q76 668 132 679T242 690Q305 690 344 673T407 628T438 569T447 507Q447 465 435 436T403 384T361 346T320 314T288 281T275 240V210H160V240Q160 291 179 322T224 377T273 421T306 472Q313 492 310 511Q307 530 297 541T273 558T244 565T215 567Q201 567 182 565T140 555V485H32V651ZM282 145V0H152V145H282Z"  />
<glyph unicode="@" horiz-adv-x="810" d="M254 440Q294 451 336 456T414 461Q451 461 480 456T528 436T558 396T568 331V146Q608 146 635 163T678 206T702 263T709 322Q709 380 687 427T626 508T536 560T425 578Q354 578 295 555T193 488T126 385T102 253Q102 188 124 133T185 38T279 -26T397 -49L389 -120Q308 -120 240 -92T124 -13T48 105T20 253Q20 340 50 413T135 540T263 622T424 652Q500 652 566 629T682 562T761 459T790 326Q790 273 775 226T729 143T653 87T548 66H466V105H465Q440 79 414 69T350 59Q292 59 261 93T230 177Q230 213 244 236T282 274T335 293T393 299H466V325Q466 354 448 365T391 377Q380 377 366 376T338 371V329H254V440ZM466 240H399Q331 240 331 186Q331 160 348 148T391 136Q414 136 434 144T466 160V240Z"  />
<glyph unicode="A" horiz-adv-x="700" d="M448 680L630 107H685V0H417V107H480L451 206H244L211 107H275V0H15V107H77L231 572H164V680H448ZM353 557H352L272 306H427L353 557Z"  />
<glyph unicode="B" horiz-adv-x="630" d="M474 351Q530 334 563 293T597 186Q597 98 542 49T380 0H15V107H72V572H15V680H360Q467 680 522 635T577 506Q577 451 550 411T474 353V351ZM210 295V107H357Q401 107 426 130T452 201Q452 247 426 271T352 295H210ZM432 487Q432 525 410 548T345 572H210V402H345Q388 402 410 425T432 487Z"  />
<glyph unicode="C" horiz-adv-x="610" d="M580 187V27Q510 7 453 -1T335 -10Q245 -10 187 18T94 94T46 207T32 345Q32 417 45 480T93 589T186 663T335 690Q396 690 453 682T580 652V492H472V569Q431 577 403 579T346 582Q299 582 267 564T214 514T186 439T177 345Q177 291 185 246T214 167T266 116T346 97Q375 97 403 99T472 111V187H580Z"  />
<glyph unicode="D" horiz-adv-x="660" d="M326 680Q414 680 472 655T564 585T613 479T627 345Q627 272 613 209T565 100T472 27T326 0H15V107H72V572H15V680H326ZM326 107Q374 107 404 125T452 175T476 250T482 345Q482 396 476 437T453 509T405 555T326 572H210V107H326Z"  />
<glyph unicode="E" horiz-adv-x="570" d="M537 680V512H430V572H210V405H487V297H210V107H430V167H537V0H15V107H72V572H15V680H537Z"  />
<glyph unicode="F" horiz-adv-x="555" d="M527 680V512H420V572H210V385H477V277H210V107H267V0H15V107H72V572H15V680H527Z"  />
<glyph unicode="G" horiz-adv-x="620" d="M177 345Q177 291 186 247T216 172T268 123T346 105Q372 105 396 110T442 123V242H337V350H580V37Q517 14 460 2T335 -10Q247 -10 189 18T96 94T47 207T32 345Q32 417 45 480T93 589T186 663T335 690Q396 690 453 682T580 652V492H472V569Q431 577 403 579T346 582Q299 582 267 564T214 514T186 439T177 345Z"  />
<glyph unicode="H" horiz-adv-x="680" d="M470 107V297H210V107H267V0H15V107H72V572H15V680H267V572H210V405H470V572H412V680H665V572H607V107H665V0H412V107H470Z"  />
<glyph unicode="I" horiz-adv-x="282" d="M72 107V572H15V680H267V572H210V107H267V0H15V107H72Z"  />
<glyph unicode="J" horiz-adv-x="372" d="M357 680V572H300V181Q300 129 288 93T252 34T195 1T120 -10Q56 -10 14 -1L25 106Q41 104 54 103T82 101Q116 101 139 117T162 181V572H105V680H357Z"  />
<glyph unicode="K" horiz-adv-x="680" d="M267 680V572H210V345L429 572H377V680H655V572H593L411 390L610 107H665V0H380V107H436L308 295L210 198V107H267V0H15V107H72V572H15V680H267Z"  />
<glyph unicode="L" horiz-adv-x="550" d="M530 167V0H15V107H72V572H15V680H267V572H210V107H422V167H530Z"  />
<glyph unicode="M" horiz-adv-x="840" d="M825 680V572H767V107H825V0H572V107H630V432H628L464 0H376L201 432H199V107H260V0H15V107H72V572H15V680H240L427 229H429L604 680H825Z"  />
<glyph unicode="N" horiz-adv-x="690" d="M675 680V572H617V0H476L201 431H199V107H260V0H15V107H72V572H15V680H206L489 230H491V572H430V680H675Z"  />
<glyph unicode="O" horiz-adv-x="670" d="M335 582Q285 582 254 564T206 514T183 439T177 345Q177 294 183 249T206 171T254 117T335 97Q385 97 416 117T464 170T486 249T492 345Q492 396 487 439T464 514T416 564T335 582ZM335 -10Q245 -10 187 18T94 94T46 207T32 345Q32 417 45 480T93 589T186 663T335 690Q425 690 483 663T575 590T623 480T637 345Q637 272 624 208T576 95T483 18T335 -10Z"  />
<glyph unicode="P" horiz-adv-x="620" d="M362 680Q470 680 528 624T587 467Q587 365 529 310T362 255H210V107H267V0H15V107H72V572H15V680H362ZM210 362H347Q391 362 418 387T446 467Q446 519 419 545T347 572H210V362Z"  />
<glyph unicode="Q" horiz-adv-x="670" d="M32 345Q32 417 45 480T93 589T186 663T335 690Q425 690 483 663T575 590T623 480T637 345Q637 210 584 129T426 39Q430 28 452 23T504 15T565 14T620 18V-105Q513 -118 429 -95T307 -10Q228 -6 175 24T91 102T46 212T32 345ZM335 582Q285 582 254 564T206 514T183 439T177 345Q177 294 183 249T206 171T254 117T335 97Q385 97 416 117T464 170T486 249T492 345Q492 396 487 439T464 514T416 564T335 582Z"  />
<glyph unicode="R" horiz-adv-x="650" d="M362 680Q470 680 528 625T587 469Q587 399 554 348T459 280L590 107H635V0H373V107H416L308 257H210V107H267V0H15V107H72V572H15V680H362ZM210 365H345Q388 365 417 390T446 469Q446 520 419 546T347 572H210V365Z"  />
<glyph unicode="S" horiz-adv-x="580" d="M140 195V124Q188 113 224 109T290 105Q348 105 375 128T402 185Q402 209 389 225T353 252T303 271T245 287Q201 299 163 318T96 363T51 423T35 500Q35 551 54 587T108 646T186 679T282 690Q341 690 397 682T522 652V485H415V560Q370 569 341 572T282 575Q229 575 205 555T180 504Q180 483 192 467T226 439T276 418T335 402Q379 392 418 376T485 336T530 278T547 200Q547 146 527 106T473 41T391 3T290 -10Q231 -10 167 -2T32 27V195H140Z"  />
<glyph unicode="T" horiz-adv-x="580" d="M555 680V512H447V572H359V107H416V0H164V107H221V572H132V512H25V680H555Z"  />
<glyph unicode="U" horiz-adv-x="680" d="M665 680V572H607V240Q607 173 588 126T534 48T450 4T340 -10Q280 -10 231 4T146 48T91 125T72 240V572H15V680H267V572H210V240Q210 213 215 187T234 141T274 109T341 97Q380 97 405 109T445 141T464 187T470 240V572H412V680H665Z"  />
<glyph unicode="V" horiz-adv-x="690" d="M675 680V572H622L434 -5H258L64 572H15V680H287V572H215L353 137H354L482 572H410V680H675Z"  />
<glyph unicode="W" horiz-adv-x="980" d="M287 680V572H218L311 161H312L428 680H574L697 161H698L785 572H715V680H965V572H919L779 -5H595L491 429H489L392 -5H209L62 572H15V680H287Z"  />
<glyph unicode="X" horiz-adv-x="700" d="M675 680V572H624L454 341L628 107H685V0H386V107H446L329 276L214 107H272V0H15V107H70L248 349L82 572H25V680H316V572H264L374 417L481 572H425V680H675Z"  />
<glyph unicode="Y" horiz-adv-x="660" d="M456 107V0H204V107H261V210L74 572H15V680H295V572H221L340 337H342L461 572H387V680H645V572H592L399 210V107H456Z"  />
<glyph unicode="Z" horiz-adv-x="560" d="M520 680V580L199 109V107H425V167H532V0H30V100L355 570V572H155V512H47V680H520Z"  />
<glyph unicode="[" horiz-adv-x="300" d="M277 -63V-140H42V820H277V742H180V-63H277Z"  />
<glyph unicode="\" horiz-adv-x="540" d="M27 680H142L512 0H397L27 680Z"  />
<glyph unicode="]" horiz-adv-x="300" d="M120 -63V742H22V820H257V-140H22V-63H120Z"  />
<glyph unicode="^" horiz-adv-x="380" d="M112 510H42L150 700H229L337 510H267L190 629L112 510Z"  />
<glyph unicode="_" horiz-adv-x="500" d="M457 -60V-138H42V-60H457Z"  />
<glyph unicode="`" horiz-adv-x="290" d="M66 700H175L230 560H160L66 700Z"  />
<glyph unicode="a" horiz-adv-x="535" d="M59 347V487Q113 498 166 504T265 510Q313 510 349 503T411 477T449 426T462 342V107H520V0H332V50H330Q265 -15 168 -9Q104 -5 67 35T29 144Q29 187 45 217T90 265T157 292T237 300H332V335Q332 373 308 387T235 402Q221 402 205 401T166 397V347H59ZM332 222H258Q210 222 184 209T157 155Q157 122 180 106T235 90Q266 90 292 100T332 121V222Z"  />
<glyph unicode="b" horiz-adv-x="560" d="M15 700H202V450H204Q228 476 266 493T345 510Q397 510 432 490T488 434T518 351T527 250Q527 196 517 149T485 67T426 11T337 -10Q299 -10 261 5T197 46H195L172 0H15V107H72V592H15V700ZM390 250Q390 282 386 309T370 357T340 390T292 402Q260 402 237 391T202 371V129Q214 119 237 108T292 97Q321 97 340 109T370 141T385 190T390 250Z"  />
<glyph unicode="c" horiz-adv-x="485" d="M357 347V397Q336 401 320 401T290 402Q231 402 201 364T170 250Q170 175 200 136T290 97Q304 97 317 97T348 99T388 105T442 117L465 14Q420 3 379 -3T290 -10Q217 -10 168 8T88 61T45 143T32 250Q32 309 45 357T88 439T167 491T290 510Q338 510 379 504T465 486V347H357Z"  />
<glyph unicode="d" horiz-adv-x="560" d="M300 700H487V107H545V0H357V50H355Q332 24 294 7T215 -10Q162 -10 127 10T71 66T41 149T32 250Q32 303 42 350T74 433T133 489T222 510Q260 510 296 495T355 454H357V592H300V700ZM170 250Q170 218 174 190T190 142T219 109T267 97Q299 97 322 108T357 129V371Q346 380 323 391T267 402Q238 402 220 390T190 358T175 310T170 250Z"  />
<glyph unicode="e" horiz-adv-x="530" d="M170 222Q173 165 207 131T311 97Q343 97 380 100T467 117L482 14Q432 0 387 -5T292 -10Q220 -10 171 8T90 61T46 143T32 250Q32 309 45 357T89 439T169 491T290 510Q371 510 416 485T481 419T503 326T496 222H170ZM282 410Q228 410 202 381T170 304H368Q371 325 370 344T359 377T332 401T282 410Z"  />
<glyph unicode="f" horiz-adv-x="342" d="M25 107H82V407H15V492L82 500V551Q82 588 89 615T114 662T162 690T240 700Q260 700 283 698T327 691L316 591Q302 593 291 594T270 596Q237 596 225 585T212 542V500H317V407H212V107H275V0H25V107Z"  />
<glyph unicode="g" horiz-adv-x="555" d="M131 -58Q131 -78 141 -90T168 -109T207 -118T256 -121Q283 -121 308 -118T352 -106T384 -84T396 -52Q396 -34 382 -21T335 -6L165 4Q151 -10 141 -22T131 -58ZM265 261Q302 261 325 279T349 340Q349 382 325 401T265 421Q225 421 203 402T180 340Q180 298 203 280T265 261ZM98 24Q74 39 65 61T60 108T83 156T135 198V200Q97 219 76 255T54 340Q54 426 111 468T265 510Q285 510 304 508T337 500H522V422H442V421Q459 406 465 385T471 340Q471 296 456 265T413 213T348 182T265 172Q251 172 235 174T201 182Q182 156 183 136T213 113L377 105Q454 102 494 67T534 -28Q534 -121 462 -165T235 -210Q123 -210 72 -179T20 -80Q20 -48 38 -23T98 22V24Z"  />
<glyph unicode="h" horiz-adv-x="590" d="M337 107H387V312Q387 356 369 379T307 402Q276 402 249 389T202 364V107H252V0H15V107H72V592H15V700H202V435H204Q236 470 277 490T367 510Q442 510 479 465T517 342V107H575V0H337V107Z"  />
<glyph unicode="i" horiz-adv-x="275" d="M15 500H202V107H260V0H15V107H72V392H15V500ZM202 700V562H72V700H202Z"  />
<glyph unicode="j" horiz-adv-x="255" d="M15 500H212V-61Q212 -98 205 -126T181 -172T133 -200T55 -210Q35 -210 12 -208T-33 -201L-21 -101Q-7 -104 4 -105T25 -106Q58 -106 70 -95T82 -52V392H15V500ZM212 700V562H82V700H212Z"  />
<glyph unicode="k" horiz-adv-x="600" d="M15 700H202V268L368 392H325V500H575V392H514L403 309L538 107H585V0H335V107H375L293 239L202 169V107H260V0H15V107H72V592H15V700Z"  />
<glyph unicode="l" horiz-adv-x="275" d="M15 700H202V107H260V0H15V107H72V592H15V700Z"  />
<glyph unicode="m" horiz-adv-x="890" d="M330 107H380V318Q378 358 359 380T300 402Q271 402 246 389T202 364V107H252V0H15V107H72V392H15V500H202V435H204Q228 461 259 481T328 506Q353 509 373 508Q419 506 449 485T494 427Q532 470 575 490T667 510Q742 510 779 465T817 342V107H875V0H637V107H687V312Q687 356 668 379T607 402Q578 402 553 389T509 363Q509 352 509 341T510 318V107H560V0H330V107Z"  />
<glyph unicode="n" horiz-adv-x="590" d="M337 107H387V312Q387 356 369 379T307 402Q276 402 249 389T202 364V107H252V0H15V107H72V392H15V500H202V435H204Q236 470 277 490T367 510Q442 510 479 465T517 342V107H575V0H337V107Z"  />
<glyph unicode="o" horiz-adv-x="550" d="M275 402Q244 402 224 391T192 361T175 313T170 250Q170 215 175 187T192 139T224 108T275 97Q336 97 358 138T380 250Q380 284 375 312T358 360T326 391T275 402ZM275 -10Q209 -10 163 8T88 61T45 143T32 250Q32 309 45 357T87 439T163 491T275 510Q341 510 387 492T462 439T504 357T517 250Q517 191 504 143T462 61T387 9T275 -10Z"  />
<glyph unicode="p" horiz-adv-x="560" d="M15 500H202V450H204Q228 476 266 493T345 510Q397 510 432 490T488 434T518 351T527 250Q527 196 517 149T485 67T426 11T337 -10Q299 -10 264 5T204 46H202V-93H260V-200H15V-93H72V392H15V500ZM390 250Q390 282 386 309T370 357T340 390T292 402Q260 402 237 391T202 371V129Q214 119 237 108T292 97Q321 97 340 109T370 141T385 190T390 250Z"  />
<glyph unicode="q" horiz-adv-x="530" d="M300 -93H357V50H355Q332 24 294 7T215 -10Q162 -10 127 10T71 66T41 149T32 250Q32 303 42 350T74 433T133 489T222 510Q260 510 298 495T363 454H365L388 504H487V-93H545V-200H300V-93ZM170 250Q170 218 174 190T190 142T219 109T267 97Q299 97 322 108T357 129V371Q346 380 323 391T267 402Q238 402 220 390T190 358T175 310T170 250Z"  />
<glyph unicode="r" horiz-adv-x="400" d="M15 500H202V420H204Q216 437 233 453T272 482T320 502T377 510V387Q326 387 279 376T202 349V107H265V0H15V107H72V392H15V500Z"  />
<glyph unicode="s" horiz-adv-x="480" d="M330 347V398Q301 403 276 404T235 406Q212 406 198 402T175 392T164 378T160 364Q160 346 176 335T241 313Q277 305 314 295T382 268T432 222T452 151Q452 68 399 29T255 -10Q194 -10 133 -4T27 14V152H135V102Q167 96 195 95T240 94Q264 94 280 99T305 111T318 127T322 142Q322 161 302 171T236 191Q194 198 157 209T91 240T47 289T30 360Q30 440 83 475T227 510Q289 510 340 504T437 486V347H330Z"  />
<glyph unicode="t" horiz-adv-x="375" d="M82 407H15V492L82 500L98 640H212V500H337V407H212V166Q212 131 228 113T285 94Q294 94 305 95T331 99L342 -1Q321 -6 291 -8T240 -10Q154 -10 118 26T82 143V407Z"  />
<glyph unicode="u" horiz-adv-x="590" d="M15 500H202V187Q202 144 222 121T282 97Q314 97 341 110T387 136V392H322V500H517V107H575V0H387V65H385Q353 30 312 10T222 -10Q147 -10 110 35T72 157V392H15V500Z"  />
<glyph unicode="v" horiz-adv-x="578" d="M343 500H563V392H527L368 -5H212L55 392H15V500H257V392H200L302 125H304L398 392H343V500Z"  />
<glyph unicode="w" horiz-adv-x="808" d="M573 500H793V392H754L634 -5H495L404 279H402L322 -5H183L53 392H15V500H257V392H193L265 140H267L361 500H468L568 133H570L628 392H573V500Z"  />
<glyph unicode="x" horiz-adv-x="608" d="M378 500H583V392H542L399 247L539 107H593V0H319V107H361L269 203L182 107H226V0H15V107H57L203 262L72 392H25V500H292V392H250L335 303L417 392H378V500Z"  />
<glyph unicode="y" horiz-adv-x="578" d="M343 500H563V392H527L359 -14Q342 -54 322 -89T275 -152T215 -194T140 -210Q120 -210 96 -208T52 -201L63 -98Q75 -100 89 -101T111 -103Q149 -103 178 -78T221 -11L56 392H15V500H257V392H200L304 115H306L398 392H343V500Z"  />
<glyph unicode="z" horiz-adv-x="470" d="M439 500V400L180 102V100H345V152H452V0H19V100L281 398V400H135V347H27V500H439Z"  />
<glyph unicode="{" horiz-adv-x="340" d="M240 15Q240 -22 246 -42T262 -72T287 -83T317 -85V-140Q273 -140 234 -137T166 -119T120 -75T102 6Q102 52 107 101T112 195Q112 219 111 238T104 271T83 294T42 307V372Q68 376 82 385T103 408T111 441T112 485Q112 530 107 579T102 674Q102 725 119 754T166 798T234 816T317 820V765Q301 765 287 764T263 753T246 723T240 665Q240 642 242 616T246 562T251 509T253 459Q253 429 246 409T225 376T193 355T153 341V339Q174 333 192 325T224 304T245 271T253 221Q253 198 251 172T247 118T242 65T240 15Z"  />
<glyph unicode="|" horiz-adv-x="170" d="M42 -100V780H127V-100H42Z"  />
<glyph unicode="}" horiz-adv-x="340" d="M100 665Q100 702 94 722T78 752T53 763T22 765V820Q66 820 105 817T173 799T220 755T237 674Q237 628 232 579T227 485Q227 461 228 442T235 408T256 385T297 372V307Q271 303 257 294T236 271T228 238T227 195Q227 150 232 101T237 6Q237 -45 220 -74T174 -118T105 -136T22 -140V-85Q38 -85 52 -84T77 -73T94 -43T100 15Q100 38 98 64T94 118T89 171T87 221Q87 251 94 271T115 304T147 325T187 339V341Q165 347 147 355T116 376T95 409T87 459Q87 482 89 508T93 562T98 615T100 665Z"  />
<glyph unicode="~" horiz-adv-x="460" d="M148 302Q133 302 118 295T77 261L36 292Q62 346 90 368T144 391Q163 391 189 384T241 369T291 354T327 347Q334 347 341 347T356 351T372 361T392 381L425 342Q407 304 387 286T343 263Q333 261 322 263Q307 264 283 270T234 284T185 296T148 302Z"  />
<glyph unicode="&#xA1;" horiz-adv-x="215" d="M42 355V500H172V355H42ZM42 -200L50 280H165L172 -200H42Z"  />
<glyph unicode="&#xA2;" horiz-adv-x="510" d="M284 -100V-9Q228 -7 183 12T107 65T59 146T42 250Q42 307 58 353T106 434T183 487T284 509V600H339V508Q374 505 405 497T475 471L459 371Q423 385 396 392T339 401V98Q368 100 395 107T459 129L475 29Q437 12 406 3T339 -8V-100H284ZM180 250Q180 185 207 147T284 100V399Q235 392 208 353T180 250Z"  />
<glyph unicode="&#xA3;" horiz-adv-x="580" d="M202 310V115H445V167H552V0H22V115H72V310H22V372H72V500Q72 551 90 587T141 646T217 679T312 690Q374 690 430 680T552 647V485H445V556Q405 567 373 571T312 575Q254 575 228 552T202 490V372H417V310H202Z"  />
<glyph unicode="&#xA4;" horiz-adv-x="513" d="M100 249Q100 283 112 312T148 363L70 453L78 461L157 371Q177 388 202 397T257 407Q285 407 310 398T356 371L434 461L443 453L365 364Q388 342 401 313T415 249Q415 215 402 186T366 135L442 49L433 40L356 127Q336 110 311 101T257 92Q228 92 203 101T157 127L81 40L72 49L148 135Q125 157 113 186T100 249ZM112 249Q112 219 123 193T155 147T201 116T257 104Q287 104 313 115T360 147T391 193T403 249Q403 279 392 305T360 352T314 383T257 395Q227 395 201 384T155 352T124 306T112 249Z"  />
<glyph unicode="&#xA5;" horiz-adv-x="660" d="M456 107V0H204V107H261V205H102V267H230L67 572H15V680H295V572H228L340 352H342L453 572H387V680H645V572H592L429 267H557V205H399V107H456Z"  />
<glyph unicode="&#xA6;" horiz-adv-x="170" d="M42 380V780H127V380H42ZM42 -100V300H127V-100H42Z"  />
<glyph unicode="&#xA7;" horiz-adv-x="600" d="M557 350Q557 294 536 255T476 190Q510 163 530 127T550 40Q550 -11 530 -47T477 -106T398 -139T302 -150Q230 -150 168 -132T62 -85L116 22Q169 -5 215 -16T302 -28Q360 -28 382 -9T405 40Q405 62 390 78T351 105T300 124T250 137Q206 147 169 163T104 204T61 262T45 340Q45 395 66 434T126 499Q91 526 72 563T52 650Q52 701 72 737T125 796T204 829T300 840Q372 840 434 822T540 775L486 668Q433 695 387 706T300 717Q242 717 220 698T197 650Q197 627 212 611T251 584T302 566T352 552Q396 541 433 525T498 485T541 428T557 350ZM270 433Q261 432 252 432T234 432Q211 418 201 395T190 347Q190 328 200 315T225 292T260 276T296 265Q311 261 327 257T358 247Q384 262 398 287T412 342Q412 364 398 379T362 405T316 421T270 433Z"  />
<glyph unicode="&#xA8;" horiz-adv-x="480" d="M177 700V570H62V700H177ZM417 700V570H302V700H417Z"  />
<glyph unicode="&#xA9;" horiz-adv-x="765" d="M30 340Q30 413 57 477T133 588T245 662T382 690Q455 690 519 663T632 588T707 477T735 340Q735 267 708 203T632 92T520 18T382 -10Q309 -10 245 17T133 92T58 203T30 340ZM89 340Q89 279 112 226T174 132T267 69T382 45Q443 45 496 68T590 132T653 225T676 340Q676 401 653 454T590 546T497 608T382 631Q321 631 268 609T175 547T112 454T89 340ZM392 447Q346 447 321 423T296 344Q296 285 321 258T392 230Q410 230 436 236T489 260L517 202Q497 188 466 175T387 162Q305 162 259 209T213 344Q213 429 259 472T387 516Q434 516 465 503T517 476L489 417Q462 434 436 440T392 447Z"  />
<glyph unicode="&#xAA;" horiz-adv-x="278" d="M30 603V673Q57 678 84 681T135 685Q183 685 209 669T235 601V486H263V430H166V455H165Q152 441 139 435T109 426Q104 426 98 426T86 425Q57 427 40 443T18 483Q15 495 15 507Q16 529 26 543T51 566T85 577T120 581H166V597Q166 616 155 622T119 628Q113 628 105 628T87 626V603H30ZM166 540H131Q109 540 96 534T83 508Q83 492 94 485T120 477Q134 477 146 482T166 492V540Z"  />
<glyph unicode="&#xAB;" horiz-adv-x="730" d="M337 480V342L180 250L337 157V20L42 211V289L337 480ZM687 480V342L530 250L687 157V20L392 211V289L687 480Z"  />
<glyph unicode="&#xAC;" horiz-adv-x="590" d="M527 319V107H420V211H62V319H527Z"  />
<glyph unicode="&#xAD;" horiz-adv-x="540" d="M477 319V211H62V319H477Z"  />
<glyph unicode="&#xAE;" horiz-adv-x="765" d="M447 168L376 272H327V168H248V512H392Q456 512 493 481T530 393Q530 351 511 324T458 286L544 168H447ZM327 341H390Q417 341 433 352T450 393Q450 420 434 431T392 443H327V341ZM30 340Q30 413 57 477T133 588T245 662T382 690Q455 690 519 663T632 588T707 477T735 340Q735 267 708 203T632 92T520 18T382 -10Q309 -10 245 17T133 92T58 203T30 340ZM89 340Q89 279 112 226T174 132T267 69T382 45Q443 45 496 68T590 132T653 225T676 340Q676 401 653 454T590 546T497 608T382 631Q321 631 268 609T175 547T112 454T89 340Z"  />
<glyph unicode="&#xAF;" horiz-adv-x="380" d="M322 665V572H57V665H322Z"  />
<glyph unicode="&#xB0;" horiz-adv-x="260" d="M35 580Q35 599 42 616T62 647T92 667T130 675Q149 675 166 668T197 647T217 617T225 580Q225 560 218 543T197 513T167 493T130 485Q90 485 63 512T35 580ZM83 580Q83 560 96 547T130 533Q150 533 163 546T177 580Q177 600 164 613T130 627Q110 627 97 614T83 580Z"  />
<glyph unicode="&#xB1;" horiz-adv-x="500" d="M196 127V222H42V330H196V484H304V330H457V222H304V127H457V20H42V127H196Z"  />
<glyph unicode="&#xB2;" horiz-adv-x="273" d="M258 625V540H15V605Q64 636 94 660T142 703T166 738T173 767Q173 786 167 797T151 814T132 821T114 823Q95 823 71 816V791H15V860Q47 873 72 879T130 885Q188 885 216 855T244 782Q244 729 209 687T111 601V600H202V625H258Z"  />
<glyph unicode="&#xB3;" horiz-adv-x="271" d="M15 628H71V599Q85 594 98 593T126 591Q161 591 173 606T185 637Q185 682 121 682H75V738H118Q154 738 166 754T178 787Q178 802 166 815T126 828Q98 828 75 820V791H19V860Q50 874 80 879T139 885Q183 885 214 862T246 795Q246 766 231 748T187 718V717Q222 708 239 685T256 632Q256 585 223 560T130 535Q98 535 72 540T15 559V628Z"  />
<glyph unicode="&#xB4;" horiz-adv-x="290" d="M129 560H59L114 700H223L129 560Z"  />
<glyph unicode="&#xB5;" horiz-adv-x="590" d="M15 500H202V187Q202 144 222 121T282 97Q314 97 341 110T387 136V392H322V500H517V107H575V0H387V65H385Q365 44 341 29T290 6Q238 -7 202 12V-25Q202 -66 196 -99T174 -156T130 -194T56 -209Q40 -210 22 -209Q-9 -208 -43 -201L-31 -101Q-17 -104 -6 -105T15 -106Q49 -106 60 -88T72 -34V392H15V500Z"  />
<glyph unicode="&#xB6;" horiz-adv-x="565" d="M385 632H323V295H231Q186 295 149 309T86 348T45 409T30 488Q30 533 44 568T85 629T149 667T231 680H522V632H440V47H522V0H403V2H385V632Z"  />
<glyph unicode="&#xB7;" horiz-adv-x="215" d="M172 322V177H42V322H172Z"  />
<glyph unicode="&#xB8;" horiz-adv-x="294" d="M107 0H155V-53Q167 -55 181 -58T208 -70T229 -92T238 -126Q238 -162 211 -183T136 -205Q118 -205 97 -202T55 -193L62 -152Q74 -154 85 -156T110 -158Q136 -158 147 -146T158 -119Q158 -104 146 -93T107 -78V0Z"  />
<glyph unicode="&#xB9;" horiz-adv-x="207" d="M192 596V540H16V596H70V816L16 814V862L106 883H138V596H192Z"  />
<glyph unicode="&#xBA;" horiz-adv-x="274" d="M138 628Q108 628 98 609T87 555Q87 521 97 501T138 481Q167 481 177 501T188 555Q188 589 178 608T138 628ZM138 425Q70 425 43 460T15 555Q15 614 42 649T138 685Q204 685 231 650T259 555Q259 495 232 460T138 425Z"  />
<glyph unicode="&#xBB;" horiz-adv-x="730" d="M337 289V211L42 20V157L200 250L42 342V480L337 289ZM687 289V211L392 20V157L550 250L392 342V480L687 289Z"  />
<glyph unicode="&#xBC;" horiz-adv-x="800" d="M254 0H214L584 680H624L254 0ZM242 396V340H66V396H120V616L66 614V662L156 683H188V396H242ZM623 149V270H622Q602 233 584 206T540 149H623ZM623 93H470V149Q512 194 546 238T608 343H692V149H735V93H692V56H720V0H595V56H623V93Z"  />
<glyph unicode="&#xBD;" horiz-adv-x="800" d="M217 0H177L547 680H587L217 0ZM242 396V340H66V396H120V616L66 614V662L156 683H188V396H242ZM735 85V0H492V65Q541 96 571 120T619 163T642 198T649 227Q649 246 643 257T628 274T609 281T590 283Q570 283 548 276V251H492V320Q523 333 548 339T606 345Q665 345 693 315T721 242Q721 189 686 147T588 61V60H679V85H735Z"  />
<glyph unicode="&#xBE;" horiz-adv-x="800" d="M264 0H224L594 680H634L264 0ZM65 428H121V399Q135 394 148 393T176 391Q211 391 223 406T235 437Q235 482 171 482H125V538H168Q204 538 216 554T228 587Q228 602 216 615T176 628Q148 628 125 620V591H69V660Q100 674 130 679T189 685Q233 685 264 662T296 595Q296 566 281 548T237 518V517Q272 508 289 485T306 432Q306 385 273 360T180 335Q148 335 122 340T65 359V428ZM623 149V270H622Q602 233 584 206T540 149H623ZM623 93H470V149Q512 194 546 238T608 343H692V149H735V93H692V56H720V0H595V56H623V93Z"  />
<glyph unicode="&#xBF;" horiz-adv-x="500" d="M457 -151Q413 -169 357 -179T247 -190Q185 -190 145 -173T82 -128T51 -69T42 -8Q42 34 55 64T87 116T128 154T170 186T202 219T215 260V290H330V260Q330 220 319 193T290 145T253 110T216 79T188 47T176 6Q176 -19 186 -34T211 -56T243 -66T275 -68Q289 -68 308 -65T350 -55V15H457V-151ZM207 355V500H337V355H207Z"  />
<glyph unicode="&#xC0;" horiz-adv-x="700" d="M209 870H318L373 730H303L209 870ZM448 680L630 107H685V0H417V107H480L451 206H244L211 107H275V0H15V107H77L231 572H164V680H448ZM353 557H352L272 306H427L353 557Z"  />
<glyph unicode="&#xC1;" horiz-adv-x="700" d="M396 730H326L381 870H490L396 730ZM448 680L630 107H685V0H417V107H480L451 206H244L211 107H275V0H15V107H77L231 572H164V680H448ZM353 557H352L272 306H427L353 557Z"  />
<glyph unicode="&#xC2;" horiz-adv-x="700" d="M267 730H197L305 870H384L492 730H422L345 799L267 730ZM448 680L630 107H685V0H417V107H480L451 206H244L211 107H275V0H15V107H77L231 572H164V680H448ZM353 557H352L272 306H427L353 557Z"  />
<glyph unicode="&#xC3;" horiz-adv-x="700" d="M288 772Q271 772 257 765T217 731L176 762Q202 816 230 838T284 861Q303 861 321 854T356 839T389 824T417 817Q424 817 431 817T446 821T462 831T482 851L515 812Q497 774 477 756T433 733Q422 731 412 733Q398 734 382 740T350 754T317 766T288 772ZM448 680L630 107H685V0H417V107H480L451 206H244L211 107H275V0H15V107H77L231 572H164V680H448ZM353 557H352L272 306H427L353 557Z"  />
<glyph unicode="&#xC4;" horiz-adv-x="700" d="M288 870V740H173V870H288ZM528 870V740H413V870H528ZM448 680L630 107H685V0H417V107H480L451 206H244L211 107H275V0H15V107H77L231 572H164V680H448ZM353 557H352L272 306H427L353 557Z"  />
<glyph unicode="&#xC5;" horiz-adv-x="700" d="M250 820Q250 839 257 856T277 887T307 907T345 915Q364 915 381 908T412 887T432 857T440 820Q440 800 433 783T412 753T382 733T345 725Q305 725 278 752T250 820ZM298 820Q298 800 311 787T345 773Q365 773 378 786T392 820Q392 840 379 853T345 867Q325 867 312 854T298 820ZM448 680L630 107H685V0H417V107H480L451 206H244L211 107H275V0H15V107H77L231 572H164V680H448ZM353 557H352L272 306H427L353 557Z"  />
<glyph unicode="&#xC6;" horiz-adv-x="916" d="M232 572V680H883V512H776V572H556V405H833V297H556V107H776V167H883V0H418V189H249L174 36H195L182 0H10V107H71L301 572H232ZM295 296H418V556H416L295 296Z"  />
<glyph unicode="&#xC7;" horiz-adv-x="610" d="M312 -9Q229 -6 175 23T89 100T45 211T32 345Q32 417 45 480T93 589T186 663T335 690Q396 690 453 682T580 652V492H472V569Q431 577 403 579T346 582Q299 582 267 564T214 514T186 439T177 345Q177 291 185 246T214 167T266 116T346 97Q375 97 403 99T472 111V187H580V27Q517 8 465 0T359 -9V-53Q372 -55 386 -58T413 -70T434 -92T442 -126Q442 -162 416 -183T340 -205Q322 -205 301 -202T259 -193L267 -152Q279 -154 290 -156T315 -158Q340 -158 351 -146T363 -119Q363 -104 350 -93T312 -78V-9Z"  />
<glyph unicode="&#xC8;" horiz-adv-x="570" d="M188 870H297L352 730H282L188 870ZM537 680V512H430V572H210V405H487V297H210V107H430V167H537V0H15V107H72V572H15V680H537Z"  />
<glyph unicode="&#xC9;" horiz-adv-x="570" d="M326 730H256L311 870H420L326 730ZM537 680V512H430V572H210V405H487V297H210V107H430V167H537V0H15V107H72V572H15V680H537Z"  />
<glyph unicode="&#xCA;" horiz-adv-x="570" d="M234 730H164L272 870H351L459 730H389L312 799L234 730ZM537 680V512H430V572H210V405H487V297H210V107H430V167H537V0H15V107H72V572H15V680H537Z"  />
<glyph unicode="&#xCB;" horiz-adv-x="570" d="M235 870V740H120V870H235ZM475 870V740H360V870H475ZM537 680V512H430V572H210V405H487V297H210V107H430V167H537V0H15V107H72V572H15V680H537Z"  />
<glyph unicode="&#xCC;" horiz-adv-x="282" d="M20 870H129L184 730H114L20 870ZM72 107V572H15V680H267V572H210V107H267V0H15V107H72Z"  />
<glyph unicode="&#xCD;" horiz-adv-x="282" d="M169 730H99L154 870H263L169 730ZM72 107V572H15V680H267V572H210V107H267V0H15V107H72Z"  />
<glyph unicode="&#xCE;" horiz-adv-x="282" d="M63 730H-7L101 870H180L288 730H218L141 799L63 730ZM72 107V572H15V680H267V572H210V107H267V0H15V107H72Z"  />
<glyph unicode="&#xCF;" horiz-adv-x="282" d="M78 870V740H-37V870H78ZM318 870V740H203V870H318ZM72 107V572H15V680H267V572H210V107H267V0H15V107H72Z"  />
<glyph unicode="&#xD0;" horiz-adv-x="660" d="M326 680Q414 680 472 655T564 585T613 479T627 345Q627 272 613 209T565 100T472 27T326 0H15V107H72V306H15V384H72V572H15V680H326ZM326 107Q374 107 404 125T452 175T476 250T482 345Q482 396 476 437T453 509T405 555T326 572H210V384H312V306H210V107H326Z"  />
<glyph unicode="&#xD1;" horiz-adv-x="690" d="M297 772Q280 772 266 765T226 731L185 762Q211 816 239 838T293 861Q312 861 330 854T365 839T398 824T426 817Q433 817 440 817T455 821T471 831T491 851L524 812Q506 774 486 756T442 733Q431 731 421 733Q407 734 391 740T359 754T326 766T297 772ZM675 680V572H617V0H476L201 431H199V107H260V0H15V107H72V572H15V680H206L489 230H491V572H430V680H675Z"  />
<glyph unicode="&#xD2;" horiz-adv-x="670" d="M225 870H334L389 730H319L225 870ZM335 582Q285 582 254 564T206 514T183 439T177 345Q177 294 183 249T206 171T254 117T335 97Q385 97 416 117T464 170T486 249T492 345Q492 396 487 439T464 514T416 564T335 582ZM335 -10Q245 -10 187 18T94 94T46 207T32 345Q32 417 45 480T93 589T186 663T335 690Q425 690 483 663T575 590T623 480T637 345Q637 272 624 208T576 95T483 18T335 -10Z"  />
<glyph unicode="&#xD3;" horiz-adv-x="670" d="M368 730H298L353 870H462L368 730ZM335 582Q285 582 254 564T206 514T183 439T177 345Q177 294 183 249T206 171T254 117T335 97Q385 97 416 117T464 170T486 249T492 345Q492 396 487 439T464 514T416 564T335 582ZM335 -10Q245 -10 187 18T94 94T46 207T32 345Q32 417 45 480T93 589T186 663T335 690Q425 690 483 663T575 590T623 480T637 345Q637 272 624 208T576 95T483 18T335 -10Z"  />
<glyph unicode="&#xD4;" horiz-adv-x="670" d="M258 730H188L296 870H375L483 730H413L336 799L258 730ZM335 582Q285 582 254 564T206 514T183 439T177 345Q177 294 183 249T206 171T254 117T335 97Q385 97 416 117T464 170T486 249T492 345Q492 396 487 439T464 514T416 564T335 582ZM335 -10Q245 -10 187 18T94 94T46 207T32 345Q32 417 45 480T93 589T186 663T335 690Q425 690 483 663T575 590T623 480T637 345Q637 272 624 208T576 95T483 18T335 -10Z"  />
<glyph unicode="&#xD5;" horiz-adv-x="670" d="M276 772Q259 772 245 765T205 731L164 762Q190 816 218 838T272 861Q291 861 309 854T344 839T377 824T405 817Q412 817 419 817T434 821T450 831T470 851L503 812Q485 774 465 756T421 733Q410 731 400 733Q386 734 370 740T338 754T305 766T276 772ZM335 582Q285 582 254 564T206 514T183 439T177 345Q177 294 183 249T206 171T254 117T335 97Q385 97 416 117T464 170T486 249T492 345Q492 396 487 439T464 514T416 564T335 582ZM335 -10Q245 -10 187 18T94 94T46 207T32 345Q32 417 45 480T93 589T186 663T335 690Q425 690 483 663T575 590T623 480T637 345Q637 272 624 208T576 95T483 18T335 -10Z"  />
<glyph unicode="&#xD6;" horiz-adv-x="670" d="M276 870V740H161V870H276ZM516 870V740H401V870H516ZM335 582Q285 582 254 564T206 514T183 439T177 345Q177 294 183 249T206 171T254 117T335 97Q385 97 416 117T464 170T486 249T492 345Q492 396 487 439T464 514T416 564T335 582ZM335 -10Q245 -10 187 18T94 94T46 207T32 345Q32 417 45 480T93 589T186 663T335 690Q425 690 483 663T575 590T623 480T637 345Q637 272 624 208T576 95T483 18T335 -10Z"  />
<glyph unicode="&#xD7;" horiz-adv-x="526" d="M339 265L476 128L400 52L263 189L126 52L50 128L187 265L50 402L126 478L263 341L400 478L476 402L339 265Z"  />
<glyph unicode="&#xD8;" horiz-adv-x="670" d="M335 -10Q266 -10 218 6T134 53L65 -36L25 -4L98 88Q61 137 47 203T32 345Q32 417 45 480T93 589T186 663T335 690Q400 690 447 675T530 633L604 728L644 696L567 599Q607 552 622 487T637 345Q637 272 624 208T576 95T483 18T335 -10ZM335 105Q385 105 416 123T464 174T486 250T492 345Q492 383 488 417T473 480L217 156Q234 131 262 118T335 105ZM335 575Q285 575 254 558T206 511T183 438T177 345Q177 308 180 274T195 211L449 531Q432 552 404 563T335 575Z"  />
<glyph unicode="&#xD9;" horiz-adv-x="680" d="M210 870H319L374 730H304L210 870ZM665 680V572H607V240Q607 173 588 126T534 48T450 4T340 -10Q280 -10 231 4T146 48T91 125T72 240V572H15V680H267V572H210V240Q210 213 215 187T234 141T274 109T341 97Q380 97 405 109T445 141T464 187T470 240V572H412V680H665Z"  />
<glyph unicode="&#xDA;" horiz-adv-x="680" d="M373 730H303L358 870H467L373 730ZM665 680V572H607V240Q607 173 588 126T534 48T450 4T340 -10Q280 -10 231 4T146 48T91 125T72 240V572H15V680H267V572H210V240Q210 213 215 187T234 141T274 109T341 97Q380 97 405 109T445 141T464 187T470 240V572H412V680H665Z"  />
<glyph unicode="&#xDB;" horiz-adv-x="680" d="M264 730H194L302 870H381L489 730H419L342 799L264 730ZM665 680V572H607V240Q607 173 588 126T534 48T450 4T340 -10Q280 -10 231 4T146 48T91 125T72 240V572H15V680H267V572H210V240Q210 213 215 187T234 141T274 109T341 97Q380 97 405 109T445 141T464 187T470 240V572H412V680H665Z"  />
<glyph unicode="&#xDC;" horiz-adv-x="680" d="M276 870V740H161V870H276ZM516 870V740H401V870H516ZM665 680V572H607V240Q607 173 588 126T534 48T450 4T340 -10Q280 -10 231 4T146 48T91 125T72 240V572H15V680H267V572H210V240Q210 213 215 187T234 141T274 109T341 97Q380 97 405 109T445 141T464 187T470 240V572H412V680H665Z"  />
<glyph unicode="&#xDD;" horiz-adv-x="660" d="M382 730H312L367 870H476L382 730ZM456 107V0H204V107H261V210L74 572H15V680H295V572H221L340 337H342L461 572H387V680H645V572H592L399 210V107H456Z"  />
<glyph unicode="&#xDE;" horiz-adv-x="620" d="M362 552Q470 552 528 496T587 340Q587 238 529 183T362 127H210V0H15V107H72V572H15V680H210V552H362ZM210 235H347Q391 235 418 260T446 340Q446 392 419 418T347 445H210V235Z"  />
<glyph unicode="&#xDF;" horiz-adv-x="645" d="M82 407H15V492L82 500Q82 559 102 598T156 659T232 691T320 700Q366 700 406 692T475 667T520 621T537 550Q537 509 519 482T479 436T439 400T420 365Q420 346 432 337T463 320Q509 303 539 284T586 244T610 201T617 154Q617 108 599 77T551 27T483 -1T404 -10Q366 -10 335 -5T275 10L291 110Q323 99 349 95T400 90Q424 90 439 96T464 111T476 132T480 152Q480 173 468 188T439 215T404 233T374 248Q353 259 339 269T315 290T302 316T297 351Q297 380 311 400T342 439T373 478T387 527Q387 546 381 559T363 581T338 593T309 597Q258 597 235 565T212 472V0H25V107H82V407Z"  />
<glyph unicode="&#xE0;" horiz-adv-x="535" d="M59 347V487Q113 498 166 504T265 510Q313 510 349 503T411 477T449 426T462 342V107H520V0H332V50H330Q265 -15 168 -9Q104 -5 67 35T29 144Q29 187 45 217T90 265T157 292T237 300H332V335Q332 373 308 387T235 402Q221 402 205 401T166 397V347H59ZM332 222H258Q210 222 184 209T157 155Q157 122 180 106T235 90Q266 90 292 100T332 121V222ZM151 700H260L315 560H245L151 700Z"  />
<glyph unicode="&#xE1;" horiz-adv-x="535" d="M59 347V487Q113 498 166 504T265 510Q313 510 349 503T411 477T449 426T462 342V107H520V0H332V50H330Q265 -15 168 -9Q104 -5 67 35T29 144Q29 187 45 217T90 265T157 292T237 300H332V335Q332 373 308 387T235 402Q221 402 205 401T166 397V347H59ZM332 222H258Q210 222 184 209T157 155Q157 122 180 106T235 90Q266 90 292 100T332 121V222ZM295 560H225L280 700H389L295 560Z"  />
<glyph unicode="&#xE2;" horiz-adv-x="535" d="M59 347V487Q113 498 166 504T265 510Q313 510 349 503T411 477T449 426T462 342V107H520V0H332V50H330Q265 -15 168 -9Q104 -5 67 35T29 144Q29 187 45 217T90 265T157 292T237 300H332V335Q332 373 308 387T235 402Q221 402 205 401T166 397V347H59ZM332 222H258Q210 222 184 209T157 155Q157 122 180 106T235 90Q266 90 292 100T332 121V222ZM192 560H122L230 700H309L417 560H347L270 629L192 560Z"  />
<glyph unicode="&#xE3;" horiz-adv-x="535" d="M59 347V487Q113 498 166 504T265 510Q313 510 349 503T411 477T449 426T462 342V107H520V0H332V50H330Q265 -15 168 -9Q104 -5 67 35T29 144Q29 187 45 217T90 265T157 292T237 300H332V335Q332 373 308 387T235 402Q221 402 205 401T166 397V347H59ZM332 222H258Q210 222 184 209T157 155Q157 122 180 106T235 90Q266 90 292 100T332 121V222ZM209 602Q192 602 178 595T138 561L97 592Q123 646 151 668T205 691Q224 691 242 684T277 669T310 654T338 647Q345 647 352 647T367 651T383 661T403 681L436 642Q418 604 398 586T354 563Q343 561 333 563Q319 564 303 570T271 584T238 596T209 602Z"  />
<glyph unicode="&#xE4;" horiz-adv-x="535" d="M59 347V487Q113 498 166 504T265 510Q313 510 349 503T411 477T449 426T462 342V107H520V0H332V50H330Q265 -15 168 -9Q104 -5 67 35T29 144Q29 187 45 217T90 265T157 292T237 300H332V335Q332 373 308 387T235 402Q221 402 205 401T166 397V347H59ZM332 222H258Q210 222 184 209T157 155Q157 122 180 106T235 90Q266 90 292 100T332 121V222ZM206 700V570H91V700H206ZM446 700V570H331V700H446Z"  />
<glyph unicode="&#xE5;" horiz-adv-x="535" d="M59 347V487Q113 498 166 504T265 510Q313 510 349 503T411 477T449 426T462 342V107H520V0H332V50H330Q265 -15 168 -9Q104 -5 67 35T29 144Q29 187 45 217T90 265T157 292T237 300H332V335Q332 373 308 387T235 402Q221 402 205 401T166 397V347H59ZM332 222H258Q210 222 184 209T157 155Q157 122 180 106T235 90Q266 90 292 100T332 121V222ZM175 650Q175 669 182 686T202 717T232 737T270 745Q289 745 306 738T337 717T357 687T365 650Q365 630 358 613T337 583T307 563T270 555Q230 555 203 582T175 650ZM223 650Q223 630 236 617T270 603Q290 603 303 616T317 650Q317 670 304 683T270 697Q250 697 237 684T223 650Z"  />
<glyph unicode="&#xE6;" horiz-adv-x="830" d="M235 402Q221 402 205 401T166 397V347H59V487Q78 491 102 495T152 502T205 508T256 510Q316 510 354 496T420 446Q446 475 488 492T590 510Q671 510 716 485T781 419T803 326T796 222H474Q476 165 509 131T611 97Q643 97 680 100T767 117L782 14Q732 0 687 -5T592 -10Q507 -10 455 14T373 83Q348 54 324 36T276 8T229 -6T182 -10Q144 -10 116 2T67 34T37 83T27 144Q27 191 46 221T97 268T165 293T239 300H332V327Q332 371 311 386T235 402ZM235 90Q266 90 294 101T340 128Q336 149 334 172T332 222H245Q157 222 157 155Q157 122 180 106T235 90ZM582 410Q528 410 503 381T474 304H668Q671 325 670 344T659 377T632 401T582 410Z"  />
<glyph unicode="&#xE7;" horiz-adv-x="485" d="M170 250Q170 175 200 136T290 97Q304 97 317 97T348 99T388 105T442 117L465 14Q420 3 381 -3T296 -10V-53Q308 -55 322 -58T349 -70T370 -92T379 -126Q379 -162 352 -183T277 -205Q259 -205 238 -202T196 -193L204 -152Q216 -154 227 -156T251 -158Q277 -158 288 -146T299 -119Q299 -104 289 -92T248 -78V-8Q188 -3 147 17T80 71T43 150T32 250Q32 309 45 357T88 439T167 491T290 510Q338 510 379 504T465 486V347H357V397Q336 401 320 401T290 402Q231 402 201 364T170 250Z"  />
<glyph unicode="&#xE8;" horiz-adv-x="530" d="M170 222Q173 165 207 131T311 97Q343 97 380 100T467 117L482 14Q432 0 387 -5T292 -10Q220 -10 171 8T90 61T46 143T32 250Q32 309 45 357T89 439T169 491T290 510Q371 510 416 485T481 419T503 326T496 222H170ZM282 410Q228 410 202 381T170 304H368Q371 325 370 344T359 377T332 401T282 410ZM161 700H270L325 560H255L161 700Z"  />
<glyph unicode="&#xE9;" horiz-adv-x="530" d="M170 222Q173 165 207 131T311 97Q343 97 380 100T467 117L482 14Q432 0 387 -5T292 -10Q220 -10 171 8T90 61T46 143T32 250Q32 309 45 357T89 439T169 491T290 510Q371 510 416 485T481 419T503 326T496 222H170ZM282 410Q228 410 202 381T170 304H368Q371 325 370 344T359 377T332 401T282 410ZM335 560H265L320 700H429L335 560Z"  />
<glyph unicode="&#xEA;" horiz-adv-x="530" d="M170 222Q173 165 207 131T311 97Q343 97 380 100T467 117L482 14Q432 0 387 -5T292 -10Q220 -10 171 8T90 61T46 143T32 250Q32 309 45 357T89 439T169 491T290 510Q371 510 416 485T481 419T503 326T496 222H170ZM282 410Q228 410 202 381T170 304H368Q371 325 370 344T359 377T332 401T282 410ZM211 560H141L249 700H328L436 560H366L289 629L211 560Z"  />
<glyph unicode="&#xEB;" horiz-adv-x="530" d="M170 222Q173 165 207 131T311 97Q343 97 380 100T467 117L482 14Q432 0 387 -5T292 -10Q220 -10 171 8T90 61T46 143T32 250Q32 309 45 357T89 439T169 491T290 510Q371 510 416 485T481 419T503 326T496 222H170ZM282 410Q228 410 202 381T170 304H368Q371 325 370 344T359 377T332 401T282 410ZM221 700V570H106V700H221ZM461 700V570H346V700H461Z"  />
<glyph unicode="&#xEC;" horiz-adv-x="275" d="M15 500H202V107H260V0H15V107H72V392H15V500ZM-12 700H97L152 560H82L-12 700Z"  />
<glyph unicode="&#xED;" horiz-adv-x="275" d="M15 500H202V107H260V0H15V107H72V392H15V500ZM174 560H104L159 700H268L174 560Z"  />
<glyph unicode="&#xEE;" horiz-adv-x="275" d="M44 560H-26L82 700H161L269 560H199L122 629L44 560ZM15 500H202V107H260V0H15V107H72V392H15V500Z"  />
<glyph unicode="&#xEF;" horiz-adv-x="275" d="M16 500H203V107H261V0H16V107H73V392H16V500ZM67 700V570H-48V700H67ZM307 700V570H192V700H307Z"  />
<glyph unicode="&#xF0;" horiz-adv-x="550" d="M445 725L489 681L423 615Q467 571 492 495T517 300Q517 240 504 184T460 85T383 16T267 -10Q216 -10 173 5T98 51T50 123T32 220Q32 333 88 394T241 455Q284 455 321 436T385 384L387 385Q387 423 377 463T340 532L285 477L241 522L283 564Q267 572 249 577T210 582Q179 582 147 577T69 555L53 655Q76 664 96 671T135 682T176 688T221 690Q262 690 300 681T371 652L445 725ZM376 288Q356 311 332 326T276 342Q244 342 224 331T191 301T175 262T170 220Q170 159 200 128T274 97Q310 97 331 114T364 158T377 219T376 288Z"  />
<glyph unicode="&#xF1;" horiz-adv-x="590" d="M337 107H387V312Q387 356 369 379T307 402Q276 402 249 389T202 364V107H252V0H15V107H72V392H15V500H202V435H204Q236 470 277 490T367 510Q442 510 479 465T517 342V107H575V0H337V107ZM240 602Q223 602 209 595T169 561L128 592Q154 646 182 668T236 691Q255 691 273 684T308 669T341 654T369 647Q376 647 383 647T398 651T414 661T434 681L467 642Q449 604 429 586T385 563Q374 561 364 563Q350 564 334 570T302 584T269 596T240 602Z"  />
<glyph unicode="&#xF2;" horiz-adv-x="550" d="M275 402Q244 402 224 391T192 361T175 313T170 250Q170 215 175 187T192 139T224 108T275 97Q336 97 358 138T380 250Q380 284 375 312T358 360T326 391T275 402ZM275 -10Q209 -10 163 8T88 61T45 143T32 250Q32 309 45 357T87 439T163 491T275 510Q341 510 387 492T462 439T504 357T517 250Q517 191 504 143T462 61T387 9T275 -10ZM155 700H264L319 560H249L155 700Z"  />
<glyph unicode="&#xF3;" horiz-adv-x="550" d="M275 402Q244 402 224 391T192 361T175 313T170 250Q170 215 175 187T192 139T224 108T275 97Q336 97 358 138T380 250Q380 284 375 312T358 360T326 391T275 402ZM275 -10Q209 -10 163 8T88 61T45 143T32 250Q32 309 45 357T87 439T163 491T275 510Q341 510 387 492T462 439T504 357T517 250Q517 191 504 143T462 61T387 9T275 -10ZM312 560H242L297 700H406L312 560Z"  />
<glyph unicode="&#xF4;" horiz-adv-x="550" d="M275 402Q244 402 224 391T192 361T175 313T170 250Q170 215 175 187T192 139T224 108T275 97Q336 97 358 138T380 250Q380 284 375 312T358 360T326 391T275 402ZM275 -10Q209 -10 163 8T88 61T45 143T32 250Q32 309 45 357T87 439T163 491T275 510Q341 510 387 492T462 439T504 357T517 250Q517 191 504 143T462 61T387 9T275 -10ZM197 560H127L235 700H314L422 560H352L275 629L197 560Z"  />
<glyph unicode="&#xF5;" horiz-adv-x="550" d="M275 402Q244 402 224 391T192 361T175 313T170 250Q170 215 175 187T192 139T224 108T275 97Q336 97 358 138T380 250Q380 284 375 312T358 360T326 391T275 402ZM275 -10Q209 -10 163 8T88 61T45 143T32 250Q32 309 45 357T87 439T163 491T275 510Q341 510 387 492T462 439T504 357T517 250Q517 191 504 143T462 61T387 9T275 -10ZM217 602Q200 602 186 595T146 561L105 592Q131 646 159 668T213 691Q232 691 250 684T285 669T318 654T346 647Q353 647 360 647T375 651T391 661T411 681L444 642Q426 604 406 586T362 563Q351 561 341 563Q327 564 311 570T279 584T246 596T217 602Z"  />
<glyph unicode="&#xF6;" horiz-adv-x="550" d="M275 402Q244 402 224 391T192 361T175 313T170 250Q170 215 175 187T192 139T224 108T275 97Q336 97 358 138T380 250Q380 284 375 312T358 360T326 391T275 402ZM275 -10Q209 -10 163 8T88 61T45 143T32 250Q32 309 45 357T87 439T163 491T275 510Q341 510 387 492T462 439T504 357T517 250Q517 191 504 143T462 61T387 9T275 -10ZM212 700V570H97V700H212ZM452 700V570H337V700H452Z"  />
<glyph unicode="&#xF7;" horiz-adv-x="500" d="M457 304V226H42V304H457ZM307 165V35H192V165H307ZM307 495V365H192V495H307Z"  />
<glyph unicode="&#xF8;" horiz-adv-x="550" d="M275 -10Q225 -10 188 1T123 32L65 -36L25 -4L83 65Q56 99 44 145T32 250Q32 309 45 357T87 439T163 491T275 510Q324 510 361 499T427 467L485 536L525 504L465 435Q492 400 504 354T517 250Q517 191 504 143T462 61T387 9T275 -10ZM275 97Q336 97 358 138T380 250Q380 291 368 321L202 125Q214 111 231 104T275 97ZM275 402Q244 402 224 391T192 361T175 313T170 250Q170 230 172 212T181 179L347 374Q322 402 275 402Z"  />
<glyph unicode="&#xF9;" horiz-adv-x="590" d="M15 500H202V187Q202 144 222 121T282 97Q314 97 341 110T387 136V392H322V500H517V107H575V0H387V65H385Q353 30 312 10T222 -10Q147 -10 110 35T72 157V392H15V500ZM160 700H269L324 560H254L160 700Z"  />
<glyph unicode="&#xFA;" horiz-adv-x="590" d="M15 500H202V187Q202 144 222 121T282 97Q314 97 341 110T387 136V392H322V500H517V107H575V0H387V65H385Q353 30 312 10T222 -10Q147 -10 110 35T72 157V392H15V500ZM327 560H257L312 700H421L327 560Z"  />
<glyph unicode="&#xFB;" horiz-adv-x="590" d="M15 500H202V187Q202 144 222 121T282 97Q314 97 341 110T387 136V392H322V500H517V107H575V0H387V65H385Q353 30 312 10T222 -10Q147 -10 110 35T72 157V392H15V500ZM213 560H143L251 700H330L438 560H368L291 629L213 560Z"  />
<glyph unicode="&#xFC;" horiz-adv-x="590" d="M15 500H202V187Q202 144 222 121T282 97Q314 97 341 110T387 136V392H322V500H517V107H575V0H387V65H385Q353 30 312 10T222 -10Q147 -10 110 35T72 157V392H15V500ZM227 700V570H112V700H227ZM467 700V570H352V700H467Z"  />
<glyph unicode="&#xFD;" horiz-adv-x="580" d="M343 500H563V392H527L359 -14Q342 -54 322 -89T275 -152T215 -194T140 -210Q120 -210 96 -208T52 -201L63 -98Q75 -100 89 -101T111 -103Q149 -103 178 -78T221 -11L56 392H15V500H257V392H200L304 115H306L398 392H343V500ZM338 560H268L323 700H432L338 560Z"  />
<glyph unicode="&#xFE;" horiz-adv-x="560" d="M15 700H202V450H204Q228 476 266 493T345 510Q397 510 432 490T488 434T518 351T527 250Q527 196 517 149T485 67T426 11T337 -10Q299 -10 264 5T204 46H202V-93H260V-200H15V-93H72V592H15V700ZM390 250Q390 282 386 309T370 357T340 390T292 402Q260 402 237 391T202 371V129Q214 119 237 108T292 97Q321 97 340 109T370 141T385 190T390 250Z"  />
<glyph unicode="&#xFF;" horiz-adv-x="580" d="M343 500H563V392H527L359 -14Q342 -54 322 -89T275 -152T215 -194T140 -210Q120 -210 96 -208T52 -201L63 -98Q75 -100 89 -101T111 -103Q149 -103 178 -78T221 -11L56 392H15V500H257V392H200L304 115H306L398 392H343V500ZM238 700V570H123V700H238ZM478 700V570H363V700H478Z"  />
<glyph unicode="&#x152;" horiz-adv-x="997" d="M335 582Q285 582 254 564T206 514T183 439T177 345Q177 294 183 249T206 171T254 117T335 97Q385 97 416 117T464 171T486 250T492 348Q492 398 486 441T463 515T415 564T335 582ZM471 0V53Q451 25 419 8T335 -10Q245 -10 187 18T94 94T46 207T32 345Q32 417 45 480T93 589T186 663T335 690Q387 690 419 673T473 628V680H965V512H857V572H637V405H915V297H637V107H857V167H965V0H471Z"  />
<glyph unicode="&#x153;" horiz-adv-x="878" d="M522 222Q525 165 557 131T659 97Q691 97 729 100T815 117L831 14Q780 0 735 -5T641 -10Q569 -10 523 11T450 69Q424 32 382 11T275 -10Q209 -10 163 8T88 61T45 143T32 250Q32 309 45 357T87 439T163 491T275 510Q339 510 381 489T450 430Q477 467 522 488T638 510Q719 510 764 485T829 419T851 326T844 222H522ZM275 402Q244 402 224 391T192 361T175 313T170 250Q170 215 175 187T192 139T224 108T275 97Q305 97 325 107T358 138T375 186T380 250Q380 284 375 312T358 360T326 391T275 402ZM631 410Q576 410 552 381T522 304H716Q720 325 719 344T708 377T680 401T631 410Z"  />
<glyph unicode="&#x160;" horiz-adv-x="580" d="M290 801L367 870H437L329 730H250L142 870H212L290 801ZM140 195V124Q188 113 224 109T290 105Q348 105 375 128T402 185Q402 209 389 225T353 252T303 271T245 287Q201 299 163 318T96 363T51 423T35 500Q35 551 54 587T108 646T186 679T282 690Q341 690 397 682T522 652V485H415V560Q370 569 341 572T282 575Q229 575 205 555T180 504Q180 483 192 467T226 439T276 418T335 402Q379 392 418 376T485 336T530 278T547 200Q547 146 527 106T473 41T391 3T290 -10Q231 -10 167 -2T32 27V195H140Z"  />
<glyph unicode="&#x161;" horiz-adv-x="480" d="M330 347V398Q301 403 276 404T235 406Q212 406 198 402T175 392T164 378T160 364Q160 346 176 335T241 313Q277 305 314 295T382 268T432 222T452 151Q452 68 399 29T255 -10Q194 -10 133 -4T27 14V152H135V102Q167 96 195 95T240 94Q264 94 280 99T305 111T318 127T322 142Q322 161 302 171T236 191Q194 198 157 209T91 240T47 289T30 360Q30 440 83 475T227 510Q289 510 340 504T437 486V347H330ZM249 631L326 700H396L288 560H209L101 700H171L249 631Z"  />
<glyph unicode="&#x178;" horiz-adv-x="660" d="M278 870V740H163V870H278ZM518 870V740H403V870H518ZM456 107V0H204V107H261V210L74 572H15V680H295V572H221L340 337H342L461 572H387V680H645V572H592L399 210V107H456Z"  />
<glyph unicode="&#x17D;" horiz-adv-x="560" d="M289 801L366 870H436L328 730H249L141 870H211L289 801ZM520 680V580L199 109V107H425V167H532V0H30V100L355 570V572H155V512H47V680H520Z"  />
<glyph unicode="&#x17E;" horiz-adv-x="470" d="M439 500V400L180 102V100H345V152H452V0H19V100L281 398V400H135V347H27V500H439ZM252 631L329 700H399L291 560H212L104 700H174L252 631Z"  />
<glyph unicode="&#x192;" horiz-adv-x="460" d="M157 407H90V492L157 500V547Q157 627 193 663T315 700Q335 700 358 698T402 691L391 591Q377 593 366 594T345 596Q311 596 299 578T287 524V500H397V407H287V-35Q287 -75 280 -107T256 -162T208 -197T130 -210Q110 -210 87 -208T42 -201L54 -101Q68 -104 79 -105T100 -106Q134 -106 145 -88T157 -34V407Z"  />
<glyph unicode="&#x2C6;" horiz-adv-x="420" d="M132 560H62L170 700H249L357 560H287L210 629L132 560Z"  />
<glyph unicode="&#x2DC;" horiz-adv-x="450" d="M168 602Q151 602 137 595T97 561L56 592Q82 646 110 668T164 691Q183 691 201 684T236 669T269 654T297 647Q304 647 311 647T326 651T342 661T362 681L395 642Q377 604 357 586T313 563Q302 561 292 563Q278 564 262 570T230 584T197 596T168 602Z"  />
<glyph unicode="&#x3BC;" horiz-adv-x="590" d="M15 500H202V187Q202 144 222 121T282 97Q314 97 341 110T387 136V392H322V500H517V107H575V0H387V65H385Q365 44 341 29T290 6Q238 -7 202 12V-25Q202 -66 196 -99T174 -156T130 -194T56 -209Q40 -210 22 -209Q-9 -208 -43 -201L-31 -101Q-17 -104 -6 -105T15 -106Q49 -106 60 -88T72 -34V392H15V500Z"  />
<glyph unicode="&#x2013;" horiz-adv-x="600" d="M557 319V211H42V319H557Z"  />
<glyph unicode="&#x2014;" horiz-adv-x="700" d="M657 319V211H42V319H657Z"  />
<glyph unicode="&#x2018;" horiz-adv-x="215" d="M145 680L120 550H172V405H42V550L105 680H145Z"  />
<glyph unicode="&#x2019;" horiz-adv-x="215" d="M70 405L95 535H42V680H172V535L110 405H70Z"  />
<glyph unicode="&#x201A;" horiz-adv-x="215" d="M70 -130L95 0H42V145H172V0L110 -130H70Z"  />
<glyph unicode="&#x201C;" horiz-adv-x="435" d="M365 680L340 550H392V405H262V550L325 680H365ZM145 680L120 550H172V405H42V550L105 680H145Z"  />
<glyph unicode="&#x201D;" horiz-adv-x="435" d="M70 405L95 535H42V680H172V535L110 405H70ZM290 405L315 535H262V680H392V535L330 405H290Z"  />
<glyph unicode="&#x201E;" horiz-adv-x="435" d="M70 -130L95 0H42V145H172V0L110 -130H70ZM290 -130L315 0H262V145H392V0L330 -130H290Z"  />
<glyph unicode="&#x2020;" horiz-adv-x="580" d="M351 385L359 0H221L229 385L42 377V500L229 492L221 700H359L351 492L537 500V377L351 385Z"  />
<glyph unicode="&#x2021;" horiz-adv-x="580" d="M229 415L42 407V530L229 522L221 700H359L351 522L537 530V407L351 415V285L537 292V170L351 177L359 0H221L229 177L42 170V292L229 285V415Z"  />
<glyph unicode="&#x2022;" horiz-adv-x="230" d="M172 322V177H42V322H172Z"  />
<glyph unicode="&#x2026;" horiz-adv-x="655" d="M192 145V0H62V145H192ZM392 145V0H262V145H392ZM592 145V0H462V145H592Z"  />
<glyph unicode="&#x2030;" horiz-adv-x="1110" d="M237 0H152L522 680H607L237 0ZM180 389Q110 389 74 428T37 536Q37 604 73 643T180 682Q251 682 287 643T323 536Q323 467 287 428T180 389ZM180 454Q243 454 243 536Q243 618 180 618Q118 618 118 536Q118 454 180 454ZM579 -3Q509 -3 473 36T436 144Q436 213 472 252T579 291Q650 291 686 252T722 144Q722 76 686 37T579 -3ZM579 62Q642 62 642 144Q642 226 579 226Q517 226 517 144Q517 62 579 62ZM929 -3Q859 -3 823 36T786 144Q786 213 822 252T929 291Q1000 291 1036 252T1072 144Q1072 76 1036 37T929 -3ZM929 62Q992 62 992 144Q992 226 929 226Q867 226 867 144Q867 62 929 62Z"  />
<glyph unicode="&#x2039;" horiz-adv-x="380" d="M337 480V342L180 250L337 157V20L42 211V289L337 480Z"  />
<glyph unicode="&#x203A;" horiz-adv-x="380" d="M337 289V211L42 20V157L200 250L42 342V480L337 289Z"  />
<glyph unicode="&#x20AC;" horiz-adv-x="650" d="M74 297Q73 309 73 320T72 345Q72 354 72 363T73 382H17V445H80Q88 498 107 543T162 620T249 671T375 690Q436 690 493 682T620 652V492H512V569Q471 577 443 579T386 582Q351 582 325 572T280 544T249 500T229 445H382L381 382H219Q217 373 217 364T217 345Q217 332 217 320T219 297H382L381 235H230Q237 204 249 179T280 135T325 107T386 97Q415 97 443 99T512 111V187H620V27Q550 7 493 -1T375 -10Q303 -10 252 8T165 59T110 137T81 235H17V297H74Z"  />
<glyph unicode="&#x2122;" horiz-adv-x="800" d="M318 680V582H253V611H204V401H241V336H89V401H126V611H77V582H12V680H318ZM788 680V615H750V401H788V336H635V401H668V553H667L585 336H530L447 553H445V401H481V336H338V401H375V615H338V680H484L565 466L642 680H788Z"  />

</font>
</defs>
</svg>
