<?xml version="1.0" encoding="utf-8"?>
<!-- Generator: Adobe Illustrator 18.1.0, SVG Export Plug-In . SVG Version: 6.00 Build 0)  -->
<svg version="1.1" id="Layer_1" xmlns:sketch="http://www.bohemiancoding.com/sketch/ns"
	 xmlns="http://www.w3.org/2000/svg" xmlns:xlink="http://www.w3.org/1999/xlink" x="0px" y="0px" viewBox="65.6 -0.5 240 57.4"
	 enable-background="new 65.6 -0.5 240 57.4" xml:space="preserve">
<title>Slice 1</title>
<description>Created with Sketch (http://www.bohemiancoding.com/sketch)</description>
<g id="Page-1" sketch:type="MSPage">
	<path id="Fill-1" sketch:type="MSShapeGroup" fill="#87B27F" d="M107.6,30.7c0.9,0,1-1,1-1v-7.8c0,0,0-0.9-1-0.9H80.3
		c-0.5,0-1,0.5-1,1v7.8c0,0.5,0.4,1,1,1h7.6c0.5,0,1.2,0.4,1.4,0.9l7.3,15.1c0.2,0.5,0.9,0.9,1.4,0.9h9c0.5,0,0.8-0.4,0.5-0.9
		l-7.3-14.5c0,0-0.7-1.5,0.3-1.5H107.6"/>
	<path id="Fill-2" sketch:type="MSShapeGroup" fill="#207F16" d="M92.4-0.4L92.4-0.4l-25.8,0c-0.5,0-1,0.4-1,1v46.2c0,0.5,0.4,1,1,1
		h7.8c0.5,0,1-0.4,1-1V10.3c0-0.5,0.4-1,1-1h15.5l0,0c2,0.1,6.5,0.9,6.9,6.7c0,0.3,0.1,0.9,0.8,0.9h8.3c0.7,0,0.7-0.8,0.7-1.2
		C108,4.2,98.8-0.2,92.4-0.4"/>
</g>
<text transform="matrix(1 0 0 1 123.7323 46.4154)" fill="#FFFFFF" font-family="'AvenirNextLTW01-Bold'" font-size="34">robtarr.net</text>
<rect x="103.8" y="-61.4" fill="none" width="35.2" height="41.9"/>
</svg>
