<?xml version="1.0" encoding="UTF-8" standalone="no"?>
<svg width="45px" height="45px" viewBox="0 0 45 45" version="1.1" xmlns="http://www.w3.org/2000/svg" xmlns:xlink="http://www.w3.org/1999/xlink">
    <!-- Generator: Sketch 3.7.2 (28276) - http://www.bohemiancoding.com/sketch -->
    <title>Shape</title>
    <desc>Created with Sketch.</desc>
    <defs></defs>
    <g id="Page-1" stroke="none" stroke-width="1" fill="none" fill-rule="evenodd">
        <path d="M2.24559662,2.24559662 C-0.537198874,5.02839212 -0.537198874,9.54035724 2.24559662,12.3231527 L12.3231527,2.24559662 C9.54035724,-0.537198874 5.02839212,-0.537198874 2.24559662,2.24559662 L2.24559662,2.24559662 Z M44.1585,44.1585 L37.0277603,26.9515942 L15.0795381,5.00476198 L5.00198197,15.0809281 L26.9502042,37.0277603 L44.1585,44.1585 Z M29.243717,32.5630554 C30.1597321,31.6456503 31.8944617,31.8958517 32.2767138,32.2781038 C31.8944617,31.8958517 31.6442603,30.1611221 32.5616654,29.245107 C33.4790705,28.3290919 35.3083207,28.00383 35.3083207,28.00383 L39.4046735,37.8909551 L37.8881751,39.4074535 L28.00105,35.3111007 C28.00105,35.3111007 28.3277019,33.4804605 29.243717,32.5644454 L29.243717,32.5644454 L29.243717,32.5630554 Z" id="Shape" fill="#000000"></path>
    </g>
</svg>